# xmcd
#
# Track frame offsets:
#	150
#	18060
#	38887
#	57787
#	76539
#	90797
#	107333
#	126493
#	143808
#	163509
#
# Disc length: 2403 seconds
#
# Revision: 0
# Processed by: cddbd v1.5.2PL0 Copyright (c) Steve Scherf et al.
# Submitted via: EasyCDDAExtractor 5.0.0.0
#
DISCID=6609610a
DTITLE=Kenny Rogers - Eyes That See In The Dark
DYEAR=1983
DGENRE=Country
TTITLE0=This Woman
TTITLE1=You And I
TTITLE2=Buried Treasure
TTITLE3=Islands In The Stream
TTITLE4=Living With You
TTITLE5=Evening Star
TTITLE6=Hold Me
TTITLE7=Midsummer Nights
TTITLE8=I Will Always Love You
TTITLE9=Eyes That See In The Dark
EXTD=
EXTT0=
EXTT1=
EXTT2=
EXTT3=
EXTT4=
EXTT5=
EXTT6=
EXTT7=
EXTT8=
EXTT9=
PLAYORDER=
